<?xml version="1.0" standalone="no"?><!DOCTYPE svg PUBLIC "-//W3C//DTD SVG 1.1//EN" "http://www.w3.org/Graphics/SVG/1.1/DTD/svg11.dtd"><svg t="1693679293574" class="icon" viewBox="0 0 1101 1024" version="1.1" xmlns="http://www.w3.org/2000/svg" p-id="1499" xmlns:xlink="http://www.w3.org/1999/xlink" width="215.0390625" height="200"><path d="M1022.425462 0H680.904946L550.537634 132.723613l145.11071 79.827957L517.307183 470.709677l95.947699-223.749505-132.712602-97.13686L513.970925 0H78.649806A78.649806 78.649806 0 0 0 0 78.649806v865.12585a78.649806 78.649806 0 0 0 78.649806 78.649806h943.775656A78.649806 78.649806 0 0 0 1101.075269 943.775656V78.649806A78.649806 78.649806 0 0 0 1022.425462 0zM838.391742 129.574538a124.069161 124.069161 0 1 1-123.870968 124.069161c0-68.376774 55.307011-123.848946 123.672774-124.069161h0.198194z m167.715785 779.792516a44.846796 44.846796 0 0 1-39.319398 22.230709H128.385376a39.330409 39.330409 0 0 1-39.330408-39.330408V730.640516c0-14.864516 4.910796-29.310624 13.961634-41.092129L335.43157 385.376344a66.460903 66.460903 0 0 1 25.170581-19.665204 67.242667 67.242667 0 0 1 89.462365 32.834064l123.089204 265.249033a22.417892 22.417892 0 0 0 30.466753 10.614365l172.241204-87.304258a67.44086 67.44086 0 0 1 89.264172 26.348731l141.179871 251.672774a45.033978 45.033978 0 0 1-0.396387 44.241205h0.198194z" fill="#dedede" p-id="1500"></path></svg>