<?xml version="1.0" standalone="no"?><!DOCTYPE svg PUBLIC "-//W3C//DTD SVG 1.1//EN" "http://www.w3.org/Graphics/SVG/1.1/DTD/svg11.dtd"><svg t="1638367336507" class="icon" viewBox="0 0 1024 1024" version="1.1" xmlns="http://www.w3.org/2000/svg" p-id="6269" xmlns:xlink="http://www.w3.org/1999/xlink" width="64" height="64"><defs><style type="text/css"></style></defs><path d="M509.57653367 31.675733a477.866667 477.866667 0 1 0 0 955.733334 477.866667 477.866667 0 0 0 0-955.733334m0 51.2a427.144533 427.144533 0 0 1 426.666666 426.666667 427.144533 427.144533 0 0 1-426.666666 426.666667 427.144533 427.144533 0 0 1-426.666667-426.666667 427.144533 427.144533 0 0 1 426.666667-426.666667" fill="#ffffff" p-id="6270"></path><path d="M483.97653367 241.2544a25.6 25.6 0 0 1 51.2 0v373.418667a25.6 25.6 0 0 1-51.2 0v-373.418667z" fill="#ffffff" p-id="6271"></path><path d="M546.91839967 750.045867a37.341867 37.341867 0 1 1-74.683733 0 37.341867 37.341867 0 0 1 74.683733 0" fill="#ffffff" p-id="6272"></path></svg>